<mxfile host="app.diagrams.net" modified="2022-04-16T12:55:44.043Z" agent="5.0 (Windows NT 10.0; Win64; x64) AppleWebKit/537.36 (KHTML, like Gecko) Chrome/100.0.4896.75 Safari/537.36" etag="OCwZZFDDnWguzoOFY7SZ" version="17.4.4" type="github">
  <diagram id="hINWN65_sMIN1A_LbTCs" name="第 1 页">
    <mxGraphModel dx="782" dy="1605" grid="1" gridSize="10" guides="1" tooltips="1" connect="1" arrows="1" fold="1" page="1" pageScale="1" pageWidth="827" pageHeight="1169" math="0" shadow="0">
      <root>
        <mxCell id="0" />
        <mxCell id="1" parent="0" />
        <mxCell id="X2OQrwyA2pg-tkAUDYB3-3" value="" style="edgeStyle=orthogonalEdgeStyle;rounded=0;orthogonalLoop=1;jettySize=auto;html=1;" edge="1" parent="1" source="X2OQrwyA2pg-tkAUDYB3-1" target="X2OQrwyA2pg-tkAUDYB3-2">
          <mxGeometry relative="1" as="geometry" />
        </mxCell>
        <mxCell id="X2OQrwyA2pg-tkAUDYB3-1" value="Target动态代理请求" style="rounded=0;whiteSpace=wrap;html=1;" vertex="1" parent="1">
          <mxGeometry x="140" y="50" width="390" height="60" as="geometry" />
        </mxCell>
        <mxCell id="X2OQrwyA2pg-tkAUDYB3-2" value="contract" style="whiteSpace=wrap;html=1;rounded=0;" vertex="1" parent="1">
          <mxGeometry x="140" y="190" width="390" height="60" as="geometry" />
        </mxCell>
        <mxCell id="X2OQrwyA2pg-tkAUDYB3-4" value="MethodHandler" style="rounded=0;whiteSpace=wrap;html=1;" vertex="1" parent="1">
          <mxGeometry x="140" y="310" width="120" height="60" as="geometry" />
        </mxCell>
        <mxCell id="X2OQrwyA2pg-tkAUDYB3-5" value="&lt;span&gt;MethodHandler&lt;/span&gt;" style="rounded=0;whiteSpace=wrap;html=1;" vertex="1" parent="1">
          <mxGeometry x="280" y="310" width="120" height="60" as="geometry" />
        </mxCell>
        <mxCell id="X2OQrwyA2pg-tkAUDYB3-6" value="MethodHandler" style="rounded=0;whiteSpace=wrap;html=1;" vertex="1" parent="1">
          <mxGeometry x="414" y="310" width="120" height="60" as="geometry" />
        </mxCell>
        <mxCell id="X2OQrwyA2pg-tkAUDYB3-7" value="decoder" style="rounded=0;whiteSpace=wrap;html=1;" vertex="1" parent="1">
          <mxGeometry x="140" y="430" width="120" height="60" as="geometry" />
        </mxCell>
        <mxCell id="X2OQrwyA2pg-tkAUDYB3-8" value="encoder" style="rounded=0;whiteSpace=wrap;html=1;" vertex="1" parent="1">
          <mxGeometry x="420" y="430" width="120" height="60" as="geometry" />
        </mxCell>
        <mxCell id="X2OQrwyA2pg-tkAUDYB3-9" value="response" style="rounded=0;whiteSpace=wrap;html=1;" vertex="1" parent="1">
          <mxGeometry x="140" y="570" width="120" height="60" as="geometry" />
        </mxCell>
        <mxCell id="X2OQrwyA2pg-tkAUDYB3-10" value="request" style="rounded=0;whiteSpace=wrap;html=1;" vertex="1" parent="1">
          <mxGeometry x="430" y="570" width="120" height="60" as="geometry" />
        </mxCell>
        <mxCell id="X2OQrwyA2pg-tkAUDYB3-11" value="Interceptors" style="rounded=0;whiteSpace=wrap;html=1;" vertex="1" parent="1">
          <mxGeometry x="140" y="670" width="410" height="60" as="geometry" />
        </mxCell>
        <mxCell id="X2OQrwyA2pg-tkAUDYB3-12" value="logger" style="rounded=0;whiteSpace=wrap;html=1;" vertex="1" parent="1">
          <mxGeometry x="140" y="780" width="410" height="60" as="geometry" />
        </mxCell>
        <mxCell id="X2OQrwyA2pg-tkAUDYB3-15" style="edgeStyle=orthogonalEdgeStyle;rounded=0;orthogonalLoop=1;jettySize=auto;html=1;exitX=0.75;exitY=1;exitDx=0;exitDy=0;entryX=0.877;entryY=0.022;entryDx=0;entryDy=0;entryPerimeter=0;" edge="1" parent="1" source="X2OQrwyA2pg-tkAUDYB3-13" target="X2OQrwyA2pg-tkAUDYB3-14">
          <mxGeometry relative="1" as="geometry" />
        </mxCell>
        <mxCell id="X2OQrwyA2pg-tkAUDYB3-13" value="Client" style="rounded=0;whiteSpace=wrap;html=1;" vertex="1" parent="1">
          <mxGeometry x="140" y="890" width="410" height="60" as="geometry" />
        </mxCell>
        <mxCell id="X2OQrwyA2pg-tkAUDYB3-14" value="Http服务" style="rounded=0;whiteSpace=wrap;html=1;" vertex="1" parent="1">
          <mxGeometry x="220" y="1020" width="260" height="60" as="geometry" />
        </mxCell>
        <mxCell id="X2OQrwyA2pg-tkAUDYB3-18" style="edgeStyle=orthogonalEdgeStyle;rounded=0;orthogonalLoop=1;jettySize=auto;html=1;entryX=0.821;entryY=0;entryDx=0;entryDy=0;entryPerimeter=0;" edge="1" parent="1" source="X2OQrwyA2pg-tkAUDYB3-16" target="X2OQrwyA2pg-tkAUDYB3-1">
          <mxGeometry relative="1" as="geometry" />
        </mxCell>
        <mxCell id="X2OQrwyA2pg-tkAUDYB3-16" value="RequestBean" style="rounded=0;whiteSpace=wrap;html=1;" vertex="1" parent="1">
          <mxGeometry x="400" y="-80" width="120" height="60" as="geometry" />
        </mxCell>
        <mxCell id="X2OQrwyA2pg-tkAUDYB3-17" value="ResponseBean" style="rounded=0;whiteSpace=wrap;html=1;" vertex="1" parent="1">
          <mxGeometry x="140" y="-80" width="120" height="60" as="geometry" />
        </mxCell>
      </root>
    </mxGraphModel>
  </diagram>
</mxfile>
